# xmcd
#
# Track frame offsets:
#	150
#	16685
#	34274
#	36905
#	53936
#	68338
#	87167
#	102866
#	112583
#	114777
#	127665
#	141966
#	155313
#	167547
#	192201
#	202061
#	209803
#	215389
#	223999
#
# Disc length: 3056 seconds
#
# Revision: 0
# Processed by: cddbd v1.5.1PL0 Copyright (c) Steve Scherf et al.
# Submitted via: dBpowerAMP V4.0
#
DISCID=020bee13
DTITLE=Dave Barrett - Dave Barrett's Harmonica Masterclass Exploring 2nd Position 
DYEAR=2003
DGENRE=Blues
TTITLE0=A Word from the Author
TTITLE1=Technique and Phrasing
TTITLE2=12 Bar Blues Progression
TTITLE3=Verse Forms
TTITLE4=2nd through 6th Hole Cross Harp Scale Exercises
TTITLE5=2nd through 6th Hole Cross Harp Scale Licks
TTITLE6=2nd through 2nd Hole Cross Harp Scale Licks
TTITLE7=1st through 2nd Hole Cross Harp Scale Exercise and Licks
TTITLE8=6th through 10th Hole Cross Harp Scale Exercises
TTITLE9=6th through 10th Hole Cross Harp Scale Licks
TTITLE10=2nd through 6h Hole Blues Scale Exercises
TTITLE11=2nd through 6th Hole Blues Scale Licks
TTITLE12=1st through 2nd Hole Cross Harp Scale Exercise and Licks
TTITLE13=Entire G Blues Scale with High-end Alteration Exercises
TTITLE14=Entire G Blues Scale with High-end Licks
TTITLE15=Major Scale Soloing
TTITLE16=Mixolydian Scale Soloing
TTITLE17=Minor Scale Soloing
TTITLE18=Closing
EXTD=D
EXTT0=
EXTT1=
EXTT2=
EXTT3=
EXTT4=
EXTT5=
EXTT6=
EXTT7=
EXTT8=
EXTT9=
EXTT10=
EXTT11=
EXTT12=
EXTT13=
EXTT14=
EXTT15=
EXTT16=
EXTT17=
EXTT18=
PLAYORDER=
